HIERARCHY
ROOT SpineBase
{
  OFFSET 0.000000 0.000000 0.000000
  CHANNELS 6 Xposition Yposition Zposition Zrotation Xrotation Yrotation
  JOINT SpineMid
  {
    OFFSET 0.000000 28.612462 0.000000
    CHANNELS 3 Zrotation Xrotation Yrotation
    JOINT SpineShoulder
    {
      OFFSET -0.029605 21.297770 -0.641591
      CHANNELS 3 Zrotation Xrotation Yrotation
      JOINT Neck
      {
        OFFSET -0.031710 7.046000 -0.503694
        CHANNELS 3 Zrotation Xrotation Yrotation
        JOINT Head
        {
          OFFSET -3.773812 12.601144 0.471932
          CHANNELS 3 Zrotation Xrotation Yrotation
          End Site
          {
            OFFSET 0 0 0
          }
        }
      }
      JOINT ShoulderLeft
      {
        OFFSET -14.307438 -4.525225 5.962029
        CHANNELS 3 Zrotation Xrotation Yrotation
        JOINT ElbowLeft
        {
          OFFSET -1.378378 -25.171284 1.362854
          CHANNELS 3 Zrotation Xrotation Yrotation
          JOINT WristLeft
          {
            OFFSET -0.068719 -22.821160 -0.843048
            CHANNELS 3 Zrotation Xrotation Yrotation
            JOINT HandLeft
            {
              OFFSET 1.137525 -6.323491 -1.640147
              CHANNELS 3 Zrotation Xrotation Yrotation
              JOINT HandTipLeft
              {
                OFFSET 1.275480 -6.529291 -1.546256
                CHANNELS 3 Zrotation Xrotation Yrotation
                End Site
                {
                  OFFSET 0 0 0
                }
              }
              JOINT ThumbLeft
              {
                OFFSET -2.523991 0.197061 -0.836468
                CHANNELS 3 Zrotation Xrotation Yrotation
                End Site
                {
                  OFFSET 0 0 0
                }
              }
            }
          }
        }
      }
      JOINT ShoulderRight
      {
        OFFSET 10.519242 -2.605191 -11.420933
        CHANNELS 3 Zrotation Xrotation Yrotation
        JOINT ElbowRight
        {
          OFFSET 7.923440 -18.723073 -2.392050
          CHANNELS 3 Zrotation Xrotation Yrotation
          JOINT WristRight
          {
            OFFSET -21.584457 -8.341813 -11.402069
            CHANNELS 3 Zrotation Xrotation Yrotation
            JOINT HandRight
            {
              OFFSET -7.711068 -1.762824 -1.906075
              CHANNELS 3 Zrotation Xrotation Yrotation
              JOINT HandTipRight
              {
                OFFSET -5.209275 -1.459184 -0.692560
                CHANNELS 3 Zrotation Xrotation Yrotation
                End Site
                {
                  OFFSET 0 0 0
                }
              }
              JOINT ThumbRight
              {
                OFFSET 1.104406 2.515055 -2.477304
                CHANNELS 3 Zrotation Xrotation Yrotation
                End Site
                {
                  OFFSET 0 0 0
                }
              }
            }
          }
        }
      }
    }
  }
  JOINT HipLeft
  {
    OFFSET -5.514438 0.201913 0.074205
    CHANNELS 3 Zrotation Xrotation Yrotation
    JOINT KneeLeft
    {
      OFFSET 6.696396 -30.556806 6.909384
      CHANNELS 3 Zrotation Xrotation Yrotation
      JOINT AnkleLeft
      {
        OFFSET 4.844032 -31.282204 6.980162
        CHANNELS 3 Zrotation Xrotation Yrotation
        JOINT FootLeft
        {
          OFFSET -5.313327 -3.660744 -10.868983
          CHANNELS 3 Zrotation Xrotation Yrotation
          End Site
          {
            OFFSET 0 0 0
          }
        }
      }
    }
  }
  JOINT HipRight
  {
    OFFSET 5.238022 1.486409 -6.601897
    CHANNELS 3 Zrotation Xrotation Yrotation
    JOINT KneeRight
    {
      OFFSET 8.907402 -28.006489 1.464963
      CHANNELS 3 Zrotation Xrotation Yrotation
      JOINT AnkleRight
      {
        OFFSET 4.686272 -32.696966 7.871008
        CHANNELS 3 Zrotation Xrotation Yrotation
        JOINT FootRight
        {
          OFFSET -5.497403 -3.588178 -10.948791
          CHANNELS 3 Zrotation Xrotation Yrotation
          End Site
          {
            OFFSET 0 0 0
          }
        }
      }
    }
  }
}
MOTION
Frames: 15
Frame Time: 0.033333
13.522613 69.739401 316.624383 0.648465 0.998581 32.802351 0.355301 0.331919 -32.785499 -0.089481 -0.036102 0.028851 -7.414294 3.524460 1.826207 0.000000 0.000000 0.000000 -13.340434 14.045576 -0.197788 -165.524819 67.454249 -179.949623 -0.196689 12.897667 30.335664 -29.598312 9.330977 -39.173046 0.000000 0.000000 0.000000 0.000000 0.000000 0.000000 -15.524688 7.547869 6.749100 -39.720314 4.702501 15.955983 12.489162 -16.535825 -3.753227 -9.014501 8.842305 -13.983692 0.000000 0.000000 0.000000 0.000000 0.000000 0.000000 -3.113257 -0.259158 -33.438836 3.636159 0.346223 0.888739 16.792891 -33.431746 0.587656 0.000000 0.000000 0.000000 -2.695214 -1.949757 -33.544658 1.020034 2.963807 0.908028 -1.346142 -1.781153 3.794294 0.000000 0.000000 0.000000
13.516974 69.754151 316.609264 0.659607 1.038519 33.161992 0.345596 0.324635 -33.145262 -0.084732 -0.023596 0.029473 -7.546313 3.595781 1.868808 0.000000 0.000000 0.000000 -14.273621 13.235041 -0.206024 -164.632222 65.726853 -179.995824 -8.839762 12.511309 20.793786 -27.123654 4.076080 -37.960722 0.000000 0.000000 0.000000 0.000000 0.000000 0.000000 -14.892815 7.340993 6.503653 -39.911975 4.770975 16.005775 10.763668 -16.026541 -3.377728 -9.066414 5.377264 -10.095421 0.000000 0.000000 0.000000 0.000000 0.000000 0.000000 -3.090716 -0.287092 -33.783642 3.501574 0.341081 0.859063 15.994808 -32.003802 1.447418 0.000000 0.000000 0.000000 -2.772045 -2.109308 -33.951067 0.947318 3.081370 0.943364 -1.324076 -1.739369 3.755482 0.000000 0.000000 0.000000
13.508397 69.754492 316.597185 0.676900 1.103503 33.579618 0.348223 0.321083 -33.562785 -0.077558 -0.010525 0.030970 -7.642807 3.586096 1.885391 0.000000 0.000000 0.000000 -13.998412 11.241881 -0.361324 -164.069343 61.545740 177.686603 -18.665676 8.532482 8.488199 -22.857743 0.521833 -34.039121 0.000000 0.000000 0.000000 0.000000 0.000000 0.000000 -13.770611 6.967720 6.072955 -40.097171 4.920637 15.973750 9.023507 -15.002474 -3.480846 -7.335067 3.767829 -9.362737 0.000000 0.000000 0.000000 0.000000 0.000000 0.000000 -3.086098 -0.274489 -34.182784 3.445965 0.262344 0.834139 13.382551 -27.825531 2.120759 0.000000 0.000000 0.000000 -2.913821 -2.331509 -34.439025 0.880609 3.288252 1.002491 -1.231873 -1.618967 3.327249 0.000000 0.000000 0.000000
13.497765 69.736398 316.591539 0.703775 1.172566 34.079342 0.348992 0.310616 -34.062162 -0.070053 -0.000630 0.032965 -7.490607 3.581346 1.885541 0.000000 0.000000 0.000000 -13.906051 9.355313 -0.496096 -164.292626 56.579850 176.939412 -29.173054 4.271378 -7.417739 -12.029466 -3.702766 -18.961105 0.000000 0.000000 0.000000 0.000000 0.000000 0.000000 -12.381480 6.837062 5.727746 -39.665415 4.809823 15.372065 6.741400 -12.678668 -4.661760 -4.297639 0.871063 -7.741558 0.000000 0.000000 0.000000 0.000000 0.000000 0.000000 -3.087195 -0.196002 -34.658323 3.469845 0.160859 0.821258 9.749000 -21.822393 1.451296 0.000000 0.000000 0.000000 -3.092218 -2.528732 -35.010303 0.864871 3.468123 1.063121 -1.123191 -1.420400 2.685266 0.000000 0.000000 0.000000
13.488034 69.710526 316.589687 0.739583 1.254266 34.765253 0.336574 0.292562 -34.747861 -0.066088 0.001265 0.034719 -6.998298 3.723693 1.916737 0.000000 0.000000 0.000000 -14.147571 8.079936 -0.587190 -164.758207 51.720283 177.603971 -37.422485 3.654352 -21.695223 3.211204 -6.749486 1.263332 0.000000 0.000000 0.000000 0.000000 0.000000 0.000000 -10.600260 6.131935 5.013948 -39.552028 5.522794 14.827147 5.289521 -10.466105 -6.191465 -1.433952 -1.579400 -5.979822 0.000000 0.000000 0.000000 0.000000 0.000000 0.000000 -3.110574 -0.008859 -35.316258 3.659513 -0.015661 0.831341 4.427221 -12.337454 0.647316 0.000000 0.000000 0.000000 -3.362385 -2.731755 -35.788704 0.902994 3.715872 1.144645 -1.004344 -1.215223 1.935920 0.000000 0.000000 0.000000
13.466865 69.689925 316.588800 0.771346 1.345567 35.581238 0.293906 0.261767 -35.564272 -0.068145 -0.004094 0.035028 -6.122971 4.032115 1.979622 0.000000 0.000000 0.000000 -14.413754 7.517361 -0.630488 -165.573456 47.415238 179.661720 -41.864562 9.344658 -31.655449 14.134368 -6.892157 16.077935 0.000000 0.000000 0.000000 0.000000 0.000000 0.000000 -7.725782 5.490859 4.168520 -40.271700 5.952654 14.407525 5.119375 -8.174331 -8.532009 1.248875 -3.710464 -3.648503 0.000000 0.000000 0.000000 0.000000 0.000000 0.000000 -3.033106 0.009903 -36.083309 3.583468 -0.002054 0.813015 2.519055 -8.268480 -0.734742 0.000000 0.000000 0.000000 -3.656243 -2.886301 -36.690062 0.977426 3.896113 1.212556 -0.882617 -0.971936 1.182067 0.000000 0.000000 0.000000
13.441301 69.657462 316.589748 0.833752 1.445379 36.396043 0.277387 0.225287 -36.378178 -0.061895 -0.011184 0.038459 -5.110504 4.375063 2.035036 0.000000 0.000000 0.000000 -15.345669 8.282562 -0.594966 -166.226678 43.392414 -176.128371 -45.867428 20.020672 -47.628613 25.686593 -6.436798 31.315774 0.000000 0.000000 0.000000 0.000000 0.000000 0.000000 -4.715830 4.899272 3.365856 -40.868604 6.361529 13.632981 6.492167 -7.384003 -9.832208 2.455601 -4.458926 -1.885809 0.000000 0.000000 0.000000 0.000000 0.000000 0.000000 -2.987159 0.158633 -36.843431 3.698509 -0.177981 0.807223 2.743454 -8.625402 -1.682383 0.000000 0.000000 0.000000 -3.996962 -2.924977 -37.570530 1.183236 3.967236 1.265446 -0.614411 -0.661579 -0.246122 0.000000 0.000000 0.000000
13.411471 69.651540 316.586899 0.928136 1.601745 37.044140 0.313003 0.200549 -37.024114 -0.042261 0.000162 0.046121 -3.637561 4.464279 1.988658 0.000000 0.000000 0.000000 -16.594750 7.747981 -0.683611 -167.124284 38.278762 -169.373383 -36.499233 19.613179 -36.122724 15.317252 -16.476841 15.503130 0.000000 0.000000 0.000000 0.000000 0.000000 0.000000 -1.947195 4.176139 2.623889 -40.782614 6.628508 12.574751 6.666260 -4.816473 -13.048862 4.035556 -6.769280 2.938773 0.000000 0.000000 0.000000 0.000000 0.000000 0.000000 -2.968155 0.238861 -37.431784 3.765810 -0.360012 0.791088 1.306157 -5.749686 -2.205431 0.000000 0.000000 0.000000 -4.417963 -2.948903 -38.284160 1.460010 4.011113 1.315738 -0.721828 -0.565481 -0.258301 0.000000 0.000000 0.000000
13.372385 69.676216 316.578862 1.043022 1.788723 37.476292 0.373437 0.173613 -37.453312 -0.018228 0.018871 0.056062 -1.695456 4.369143 1.866075 0.000000 0.000000 0.000000 -18.514143 7.621099 -0.768348 -167.635554 33.597189 -159.247668 -21.840987 11.774703 -11.886058 -5.493241 -17.749014 -8.730732 0.000000 0.000000 0.000000 0.000000 0.000000 0.000000 0.166426 3.457299 2.048674 -40.321594 6.845908 11.470409 7.252131 -5.443375 -11.845523 4.811708 -5.298817 1.334453 0.000000 0.000000 0.000000 0.000000 0.000000 0.000000 -3.084506 0.321486 -37.836997 4.000137 -0.501630 0.820029 2.835922 -8.660042 -3.763106 0.000000 0.000000 0.000000 -4.864720 -2.919474 -38.766534 1.799205 3.991415 1.350738 -0.843280 -0.462598 -0.272731 0.000000 0.000000 0.000000
13.330562 69.724309 316.564662 1.179370 1.989473 37.797720 0.444166 0.148135 -37.771570 0.001232 0.034813 0.066897 0.406268 4.107020 1.701715 0.000000 0.000000 0.000000 -21.185406 9.007223 -0.698480 -168.207010 31.033465 -142.691498 -6.006724 6.131982 9.775742 -23.821023 -7.694628 -28.871402 0.000000 0.000000 0.000000 0.000000 0.000000 0.000000 1.769591 2.999453 1.691076 -40.016977 5.373476 12.226753 6.519308 -4.220463 -12.513944 7.782744 -3.952741 -1.569594 0.000000 0.000000 0.000000 0.000000 0.000000 0.000000 -3.343082 0.434917 -38.168630 4.403897 -0.609605 0.894161 6.139897 -15.703009 -5.022482 0.000000 0.000000 0.000000 -5.287833 -2.810239 -39.107927 2.198414 3.853443 1.362433 -1.004564 -0.331146 -0.292359 0.000000 0.000000 0.000000
13.289013 69.796346 316.541907 1.333768 2.204570 37.923771 0.519190 0.124540 -37.894571 0.012481 0.044212 0.077983 2.487869 3.726810 1.530758 0.000000 0.000000 0.000000 -23.313873 11.293880 -0.468000 -169.317242 29.834192 -122.941077 9.593281 -1.513951 31.423661 -33.557500 15.526755 -45.056842 0.000000 0.000000 0.000000 0.000000 0.000000 0.000000 2.845169 2.805415 1.527641 -39.372498 4.414214 12.099978 6.478441 -3.768357 -12.622180 6.104255 -4.755161 0.910280 0.000000 0.000000 0.000000 0.000000 0.000000 0.000000 -3.675457 0.434774 -38.327087 4.693702 -0.584417 0.963236 12.519174 -28.658991 -5.022008 0.000000 0.000000 0.000000 -5.650433 -2.643143 -39.217982 2.592156 3.601312 1.344128 -1.105882 0.172296 -1.045281 0.000000 0.000000 0.000000
13.249116 69.871029 316.514688 1.482197 2.396204 37.889873 0.575201 0.106418 -37.858614 0.019014 0.050979 0.087602 4.357964 3.351224 1.389117 0.000000 0.000000 0.000000 -24.920877 13.231926 -0.227059 -170.709158 28.202359 -100.642371 10.244809 -8.102678 26.134188 -34.386730 23.322909 -46.791669 0.000000 0.000000 0.000000 0.000000 0.000000 0.000000 3.273911 2.943478 1.570134 -38.701153 3.489840 11.870384 6.639630 -4.296127 -11.329289 5.794280 -4.445542 0.442022 0.000000 0.000000 0.000000 0.000000 0.000000 0.000000 -4.082128 0.409352 -38.356465 5.033925 -0.436383 1.060912 16.900583 -36.754148 -4.244996 0.000000 0.000000 0.000000 -5.908943 -2.441881 -39.138229 2.920204 3.275140 1.300469 -1.180198 0.395047 -1.369458 0.000000 0.000000 0.000000
13.207799 69.942971 316.493046 1.647656 2.590545 37.764352 0.609523 0.088300 -37.732010 0.017319 0.048700 0.096530 5.831567 2.842340 1.248743 0.000000 0.000000 0.000000 -24.958610 14.046350 -0.187009 -172.431471 25.412109 -80.011783 0.811465 -10.942758 5.285562 -33.024477 17.730122 -37.813013 0.000000 0.000000 0.000000 0.000000 0.000000 0.000000 3.347514 3.136543 1.671520 -37.832991 2.703856 11.507535 6.088181 -5.503964 -8.122660 6.954050 -3.206907 -3.254033 0.000000 0.000000 0.000000 0.000000 0.000000 0.000000 -4.493472 0.381360 -38.292299 5.304195 -0.253213 1.146467 20.075697 -42.016091 -3.415618 0.000000 0.000000 0.000000 -6.179699 -2.290839 -38.979928 3.198706 3.038144 1.272118 -1.223104 0.579099 -1.758242 0.000000 0.000000 0.000000
13.174716 70.003262 316.475783 1.808678 2.749163 37.607116 0.607675 0.070621 -37.574976 0.006383 0.033425 0.103193 6.896754 2.394820 1.135839 0.000000 0.000000 0.000000 -25.662908 15.194413 -0.037851 -173.408908 23.007831 -57.291273 -7.801592 -7.296434 -18.302908 -31.804363 12.063180 -30.603909 0.000000 0.000000 0.000000 0.000000 0.000000 0.000000 2.841022 3.566640 1.914348 -36.649441 2.244019 10.616172 5.334447 -7.693046 -2.893573 7.758397 -1.947071 -7.877178 0.000000 0.000000 0.000000 0.000000 0.000000 0.000000 -4.874125 0.392335 -38.192648 5.586796 -0.090194 1.231214 20.573082 -42.955797 -2.891895 0.000000 0.000000 0.000000 -6.461799 -2.181724 -38.813337 3.460957 2.948175 1.273719 -1.268804 0.674955 -2.117045 0.000000 0.000000 0.000000
13.137011 70.053617 316.476262 1.943357 2.872262 37.578523 0.548283 0.053027 -37.548597 -0.014323 0.005286 0.105863 7.560707 2.167603 1.073116 0.000000 0.000000 0.000000 -25.844488 15.949263 0.064906 -174.224943 21.001323 -39.499280 -12.151376 2.504822 -42.792355 -28.397158 2.902669 -22.113148 0.000000 0.000000 0.000000 0.000000 0.000000 0.000000 2.106182 3.431804 1.963493 -35.990151 2.302201 10.650283 6.571603 -8.743378 -1.649309 7.857590 -2.587814 -6.749073 0.000000 0.000000 0.000000 0.000000 0.000000 0.000000 -5.130135 0.469884 -38.191134 5.833863 -0.025868 1.294004 17.422696 -38.400789 -3.066830 0.000000 0.000000 0.000000 -6.653339 -2.074824 -38.765170 3.648672 2.831379 1.266289 -1.317518 0.759958 -2.374286 0.000000 0.000000 0.000000
